{"title":"Amy Winehouse - In Concert 2007 [DTS5.1 AC35.1 AC32.0][TNT Villa","uid":9933399,"size":1585432899,"categoryP":"video","categoryS":"music_videos","magnet":"?xt=urn:btih:765ddcf0fadabf117697fa13f55457d11813236c&amp;dn=Amy+Winehouse+-+In+Concert+2007+%5BDTS5.1+AC35.1+AC32.0%5D%5BTNT+Villa&amp;tr=udp%3A%2F%2Ftracker.openbittorrent.com%3A80&amp;tr=udp%3A%2F%2Fopen.demonii.com%3A1337&amp;tr=udp%3A%2F%2Ftracker.coppersurfer.tk%3A6969&amp;tr=udp%3A%2F%2Fexodus.desync.com%3A6969","seeders":9,"leechers":1,"uploader":"JeezusK","files":1,"time":1397089856,"description":".: Info :.\n\nProduction: U.S.A.\nConcert date: 29 Giugno 2007       \nConcert location: Belfort, France       \nMusic genre: R&amp;B\n\n.: Band members :.\n\nAmy Winehouse: Vocals\nFrank Tontoh: Drums\nDale Davis: Bass\nSam Beste: Keyboards\nRobin Banerjee: Guitar\nHawi Gondwe: Guitar\nHenry Collins: Trumpet\nFrancis Damuel Walden: Baritone Saxophone\nJames Hunt: Saxophone\nZalon Thompson: Backing Vocals\nDerek Green: Backing vocals\n\n.: Tracklist :. \n\n1. Intro\n2. Addicted\n3. Just Friends\n4. Tears Dry On Their Own\n5. He Can Only Hold Her\n6. Back to Black\n7. Wake Up Alone\n8. Love is a Losing Game\n9. Cupid\n10. Hey Little Rich Girl\n11. Monkey Man\n12. Rehab\n13. Valerie\n14. You Know I'm No Good\n15. Me and Mr. Jones\n\n\n.: Review :.\n\nThe astonishing Amy Winehouse - captured in concert in France at the exact moment of her international 'Back to Black' breakout. \n\nFronting a rocking yet suave and sophisticated ten-piece jazz and classic-r&amp;b band - complete with backup singing and dancing -- Winehouse slinks and undulates around the stage, bringing all of her utterly original presence and sultry, soulful vocals to bear on a set of mainly original songs. \n\nAnd those songs are hits: 'Back To Black,' 'Rehab,' 'You Know I'm No Good,' 'Tears Dry On Their Own,' and many others were making Winehouse a star even as she was on the tour captured here. Here she fully inhabits each of those hits, making them fodder for powerfully emotional vocal performance. And she covers Sam Cooke and Toots &amp; The Maytals too.\n\nA riveting evening from one of the most impressive pop stars to emerge in years.\n\n\n.: Rip specs :.\n\nGeneral\nUnique ID : 179984750397675635821069708083825397364 (0x8767CD51FEB91FB40627FF03DBF6CE74)\nFormat : Matroska\nFormat version : Version 4 / Version 2\nFile size : 1.48 GiB\nDuration : 52mn 47s\nOverall bit rate : 4 004 Kbps\nEncoded date : UTC 2014-03-31 19:24:10\nWriting application : mkvmerge v6.2.0 ('Promised Land') built on Apr 28 2013 18:50:30\nWriting library : libebml v1.3.0 + libmatroska v1.4.0\n\nVideo\nID : 1\nFormat : AVC\nFormat/Info : Advanced Video Codec\nFormat profile : &lt;a class=&quot;__cf_email__&quot; href=&quot;/cdn-cgi/l/email-protection&quot; data-cfemail=&quot;fab2939d92bab6c9d4ca&quot;&gt;[email&amp;#160;protected]&lt;/a&gt;&lt;script cf-hash='f9e31' type=&quot;text/javascript&quot;&gt;\n/* &lt;![CDATA[ */!function(){try{var t=&quot;currentScript&quot;in document?document.currentScript:function(){for(var t=document.getElementsByTagName(&quot;script&quot;),e=t.length;e--;)if(t[e].getAttribute(&quot;cf-hash&quot;))return t[e]}();if(t&amp;&amp;t.previousSibling){var e,r,n,i,c=t.previousSibling,a=c.getAttribute(&quot;data-cfemail&quot;);if(a){for(e=&quot;&quot;,r=parseInt(a.substr(0,2),16),n=2;a.length-n;n+=2)i=parseInt(a.substr(n,2),16)^r,e+=String.fromCharCode(i);e=document.createTextNode(e),c.parentNode.replaceChild(e,c)}}}catch(u){}}();/* ]]&gt; */&lt;/script&gt;\nFormat settings, CABAC : Yes\nFormat settings, ReFrames : 4 frames\nCodec ID : V_MPEG4/ISO/AVC\nBit rate : 1 775 Kbps\nWidth : 720 pixels\nHeight : 480 pixels\nDisplay aspect ratio : 16:9\nFrame rate mode : Variable\nStandard : NTSC\nColor space : YUV\nChroma subsampling : 4:2:0\nBit depth : 8 bits\nScan type : Progressive\nWriting library : x264 core 130 r2273 b3065e6\nEncoding settings : cabac=1 / ref=3 / deblock=1:-1:-1 / analyse=0x3:0x113 / me=hex / subme=7 / psy=1 / psy_rd=1.00:0.15 / mixed_ref=1 / me_range=16 / chroma_me=1 / trellis=1 / 8x8dct=1 / cqm=0 / deadzone=21,11 / fast_pskip=1 / chroma_qp_offset=-3 / threads=6 / lookahead_threads=1 / sliced_threads=0 / nr=0 / decimate=1 / interlaced=0 / bluray_compat=0 / constrained_intra=0 / bframes=3 / b_pyramid=2 / b_adapt=1 / b_bias=0 / direct=1 / weightb=1 / open_gop=0 / weightp=2 / keyint=240 / keyint_min=24 / scenecut=40 / intra_refresh=0 / rc_lookahead=40 / rc=crf / mbtree=1 / crf=20.0 / qcomp=0.60 / qpmin=0 / qpmax=69 / qpstep=4 / ip_ratio=1.40 / aq=1:1.00\nLanguage : English\nDefault : Yes\nForced : No\nColor primaries : BT.601 NTSC\nTransfer characteristics : BT.709\nMatrix coefficients : BT.601\n\nAudio #1\nID : 2\nFormat : DTS\nFormat/Info : Digital Theater Systems\nMode : 16\nFormat settings, Endianness : Big\nCodec ID : A_DTS\nDuration : 52mn 47s\nBit rate mode : Constant\nBit rate : 1 510 Kbps\nChannel(s) : 6 channels\nChannel positions : Front: L C R, Side: L R, LFE\nSampling rate : 48.0 KHz\nBit depth : 24 bits\nCompression mode : Lossy\nStream size : 570 MiB (38%)\nTitle : DTS 5.1\nLanguage : English\nDefault : Yes\nForced : No\n\nAudio #2\nID : 3\nFormat : AC-3\nFormat/Info : Audio Coding 3\nMode extension : CM (complete main)\nFormat settings, Endianness : Big\nCodec ID : A_AC3\nDuration : 52mn 47s\nBit rate mode : Constant\nBit rate : 448 Kbps\nChannel(s) : 6 channels\nChannel positions : Front: L C R, Side: L R, LFE\nSampling rate : 48.0 KHz\nBit depth : 16 bits\nCompression mode : Lossy\nStream size : 169 MiB (11%)\nTitle : AC3 5.1\nLanguage : English\nDefault : No\nForced : No\n\nAudio #3\nID : 4\nFormat : AC-3\nFormat/Info : Audio Coding 3\nMode extension : CM (complete main)\nFormat settings, Endianness : Big\nCodec ID : A_AC3\nDuration : 52mn 47s\nBit rate mode : Constant\nBit rate : 192 Kbps\nChannel(s) : 2 channels\nChannel positions : Front: L R\nSampling rate : 48.0 KHz\nBit depth : 16 bits\nCompression mode : Lossy\nStream size : 72.5 MiB (5%)\nTitle : AC3 2.0\nLanguage : English\nDefault : No\nForced : No\n\nMenu\n00:00:00.000 : en:Chapter 1\n00:00:41.941 : en:Chapter 2\n00:01:45.305 : en:Chapter 3\n00:04:32.972 : en:Chapter 4\n00:07:47.900 : en:Chapter 5\n00:11:09.201 : en:Chapter 6\n00:14:39.612 : en:Chapter 7\n00:18:58.670 : en:Chapter 8\n00:22:57.476 : en:Chapter 9\n00:25:37.736 : en:Chapter 10\n00:29:15.320 : en:Chapter 11\n00:32:48.399 : en:Chapter 12\n00:36:09.167 : en:Chapter 13\n00:40:36.600 : en:Chapter 14\n00:44:33.270 : en:Chapter 15\n00:49:04.775 : en:Chapter 16\n\nTorrent originally uploaded by JeezusKrist @ TNT Village\n","torrent":{"xt":"urn:btih:765ddcf0fadabf117697fa13f55457d11813236c","amp;dn":"Amy+Winehouse+-+In+Concert+2007+%5BDTS5.1+AC35.1+AC32.0%5D%5BTNT+Villa","amp;tr":["udp%3A%2F%2Ftracker.openbittorrent.com%3A80","udp%3A%2F%2Fopen.demonii.com%3A1337","udp%3A%2F%2Ftracker.coppersurfer.tk%3A6969","udp%3A%2F%2Fexodus.desync.com%3A6969"],"infoHash":"765ddcf0fadabf117697fa13f55457d11813236c","infoHashBuffer":{"type":"Buffer","data":[118,93,220,240,250,218,191,17,118,151,250,19,245,84,87,209,24,19,35,108]},"announce":[],"urlList":[]}}